<svg width="97" height="24" viewBox="0 0 97 24" fill="none" xmlns="http://www.w3.org/2000/svg">
<g id="Frame 20">
<g id="Group">
<path id="B" d="M6.11147 23.3972L0.871826 10.4526L6.93678 7.9977C9.39898 7.00107 11.0368 7.50754 11.8502 9.51712C12.4462 10.9896 12.0699 12.3676 10.7211 13.651C12.5644 13.2771 13.8183 13.9109 14.4827 15.5523C15.516 18.1051 14.6839 19.9274 11.9863 21.0193L6.11147 23.3972ZM11.044 18.9776C12.1061 18.5476 12.4174 17.7895 11.9777 16.7033C11.4329 15.3575 10.367 15.0059 8.77985 15.6483L8.05568 15.9414L7.42912 14.3935C9.28625 13.2555 9.94489 12.0197 9.40505 10.686C9.11192 9.96179 8.51879 9.78046 7.62564 10.142L4.11339 11.5637L7.66756 20.3443L11.044 18.9776Z" fill="#101010"/>
<path id="R" d="M22.6069 17.3986L19.6788 3.76416L25.885 2.43138C28.673 1.83265 30.3288 2.75224 30.8523 5.19015C31.2063 6.83876 30.4143 8.43718 28.4761 9.98541L34.0685 14.9572L30.8795 15.642L25.4487 10.5856L25.2006 9.43031C27.5306 8.49712 28.5383 7.29852 28.2239 5.8345C28.008 4.82879 27.3335 4.44759 26.2004 4.69091L22.7345 5.43521L25.1848 16.845L22.6069 17.3986Z" fill="#101010"/>
<path id="A" d="M41.289 14.2519L38.6335 14.3158L44.2239 0.212501L47.0063 0.145603L53.3949 13.9609L50.6125 14.0278L48.9296 10.2585L44.2923 10.37L45.1267 8.10324L47.9384 8.03563L45.6157 2.84582L41.289 14.2519Z" fill="#101010"/>
<path id="N" d="M60.3347 14.5436L62.8058 0.799072L65.3528 1.25699L70.809 12.5768L72.6095 2.56164L75.0605 3.00228L72.5894 16.7468L70.0424 16.2888L64.6243 4.75753L62.7857 14.9842L60.3347 14.5436Z" fill="#101010"/>
<path id="D" d="M86.2601 18.8493C88.9559 19.9105 90.9286 18.8539 92.1781 15.6795C93.2416 12.9776 92.4255 11.0961 89.7297 10.035L87.049 8.97978L83.5794 17.7942L86.2601 18.8493ZM80.3487 18.9363L85.4636 5.94189L90.5523 7.94495C94.8535 9.638 96.1981 12.5321 94.5861 16.6273C92.7881 21.1951 89.7386 22.6324 85.4374 20.9393L80.3487 18.9363Z" fill="#101010"/>
</g>
</g>
</svg>
